<svg xmlns="http://www.w3.org/2000/svg" width="486.5877685546875" height="263.814697265625" viewBox="-95.03868865966797 -44.31178283691406 486.5877685546875 263.814697265625"><title>Neo4j Graph Visualization</title><desc>Created using Neo4j (http://www.neo4j.com/)</desc><g class="layer relationships"><g class="relationship" transform="translate(305.24994105811936 190.50290923458306) rotate(209.53359296622955)"><path class="outline" fill="#A5ABB6" stroke="none" d="M 21.40063509461097,12.933012701892217 L 21.90063509461097,12.06698729810778 A 61.444333234144054 61.444333234144054 0 0 0 22.20313238996779,12.240491522919285 L 21.70805550133437,13.109340689542037 A 62.444333234144054 62.444333234144054 0 0 1 21.40063509461097,12.933012701892217 Z M 80.1800773188094,14.889366903931027 L 79.73876784876035,13.992011928659245 A 61.444333234144054 61.444333234144054 0 0 0 80.05125896691767,13.837229401226674 L 78.71207327745562,11.152721683014633 L 86.53830792432278,11.159880745517198 L 81.83683988620042,17.416573025509393 L 80.49765419673837,14.732065307297352 A 62.444333234144054 62.444333234144054 0 0 1 80.1800773188094,14.889366903931027"/><text text-anchor="middle" pointer-events="none" font-size="8px" fill="#000000" x="50.73794333235084" y="23.770283910104112" transform="rotate(180 50.73794333235084 20.770283910104112)" font-family="sans-serif">PublicTransp…</text></g><g class="relationship" transform="translate(210.4916533087126 136.81788374315187) rotate(250.60413776923122)"><path class="outline" fill="#A5ABB6" stroke="none" d="M 25 1.5 L 49.847750195495394 1.5 L 49.847750195495394 -1.5 L 25 -1.5 Z M 69.1836876954954 1.5 L 94.03143789099079 1.5 L 94.03143789099079 4.5 L 103.03143789099079 0 L 94.03143789099079 -4.5 L 94.03143789099079 -1.5 L 69.1836876954954 -1.5 Z"/><text text-anchor="middle" pointer-events="none" font-size="8px" fill="#000000" x="59.515718945495394" y="3" transform="rotate(180 59.515718945495394 0)" font-family="sans-serif">trek</text></g><g class="relationship" transform="translate(167.97330725759087 16.052659702819433) rotate(194.78509248116268)"><path class="outline" fill="#A5ABB6" stroke="none" d="M 25 1.5 L 47.28413531577751 1.5 L 47.28413531577751 -1.5 L 25 -1.5 Z M 66.62007281577752 1.5 L 88.90420813155502 1.5 L 88.90420813155502 4.5 L 97.90420813155502 0 L 88.90420813155502 -4.5 L 88.90420813155502 -1.5 L 66.62007281577752 -1.5 Z"/><text text-anchor="middle" pointer-events="none" font-size="8px" fill="#000000" x="56.95210406577751" y="3" transform="rotate(180 56.95210406577751 0)" font-family="sans-serif">trek</text></g><g class="relationship" transform="translate(305.24994105811936 190.50290923458306) rotate(209.53359296622955)"><path class="outline" fill="#A5ABB6" stroke="none" d="M 25 0.5 L 39.94874341304489 0.5 L 39.94874341304489 -0.5 L 25 -0.5 Z M 61.96046216304489 0.5 L 76.90920557608978 0.5 L 76.90920557608978 3.5 L 83.90920557608978 0 L 76.90920557608978 -3.5 L 76.90920557608978 -0.5 L 61.96046216304489 -0.5 Z"/><text text-anchor="middle" pointer-events="none" font-size="8px" fill="#000000" x="50.95460278804489" y="3" transform="rotate(180 50.95460278804489 0)" font-family="sans-serif">road</text></g><g class="relationship" transform="translate(305.24994105811936 190.50290923458306) rotate(209.53359296622955)"><path class="outline" fill="#A5ABB6" stroke="none" d="M 20.90063509461097,-13.799038105676656 L 22.40063509461097,-11.20096189432334 A 59.23231447685199 59.23231447685199 0 0 1 40.38095279058084,-17.982447015386455 L 39.7916204483336,-20.92399208394845 A 62.23231447685199 62.23231447685199 0 0 0 20.90063509461097,-13.799038105676656 Z M 59.506898725355114,-21.684198952298523 L 59.145827160431836,-18.70600699659724 A 59.23231447685199 59.23231447685199 0 0 1 77.59495922271772,-13.329215105186256 L 76.29947547627336,-10.623347062820091 L 86.36030522303838,-10.79569788703628 L 80.18592671560643,-18.740951189918587 L 78.89044296916207,-16.03508314755242 A 62.23231447685199 62.23231447685199 0 0 0 59.506898725355114,-21.684198952298523"/><text text-anchor="middle" pointer-events="none" font-size="8px" fill="#000000" x="49.67673719219169" y="-17.59148864970016" transform="rotate(180 49.67673719219169 -20.59148864970016)" font-family="sans-serif">trek</text></g><g class="relationship" transform="translate(305.24994105811936 190.50290923458306) rotate(299.47481118720043)"><path class="outline" fill="#A5ABB6" stroke="none" d="M 23.759917089572927,-7.919364866996621 L 24.536374224880486,-5.021587388129416 A 121.3577507119387 121.3577507119387 0 0 1 44.156154473503335,-8.582698987817139 L 43.86470419107969,-11.568508213617605 A 124.3577507119387 124.3577507119387 0 0 0 23.759917089572927,-7.919364866996621 Z M 63.41313911809199,-11.93236979742268 L 63.23300395895451,-8.937782793436568 A 121.3577507119387 121.3577507119387 0 0 1 82.97171654306756,-6.109264037716683 L 82.30363448803797,-3.18459886581282 L 92.07975308629393,-5.5673504585798606 L 84.30788065312672,-11.958594381524406 L 83.63979859809713,-9.033929209620544 A 124.3577507119387 124.3577507119387 0 0 0 63.41313911809199,-11.93236979742268"/><text text-anchor="middle" pointer-events="none" font-size="8px" fill="#000000" x="53.65967484330291" y="-7.635475576511823" font-family="sans-serif">trek</text></g><g class="relationship" transform="translate(305.24994105811936 190.50290923458306) rotate(299.47481118720043)"><path class="outline" fill="#A5ABB6" stroke="none" d="M 24.018736134675446,6.953439040707552 L 24.277555179777966,5.987513214418485 A 124.54753276365086 124.54753276365086 0 0 0 43.74224219187814,9.5749160682374 L 43.63970634709431,10.569645378419054 A 125.54753276365086 125.54753276365086 0 0 1 24.018736134675446,6.953439040707552 Z M 65.70853187086314,10.894145897682435 L 65.635287076729,9.89683190493379 A 124.54753276365086 124.54753276365086 0 0 0 85.1970347584937,6.883274646546243 L 84.50611285641028,3.9639207924851365 L 92.12401406831685,5.7576825173617925 L 86.1182639612716,10.775746451961052 L 85.42734205918818,7.856392597899945 A 125.54753276365086 125.54753276365086 0 0 1 65.70853187086314,10.894145897682435"/><text text-anchor="middle" pointer-events="none" font-size="8px" fill="#000000" x="54.674325614075" y="13.71785151587234" font-family="sans-serif">road</text></g><g class="relationship" transform="translate(210.4916533087126 136.81788374315187) rotate(520.0173718490482)"><path class="outline" fill="#A5ABB6" stroke="none" d="M 23.759917089572927,-7.919364866996621 L 24.536374224880486,-5.021587388129416 A 179.9861929670935 179.9861929670935 0 0 1 58.82961628634544,-10.734336892019968 L 58.624757030233,-13.727334166523434 A 182.9861929670935 182.9861929670935 0 0 0 23.759917089572927,-7.919364866996621 Z M 78.10907599795235,-14.020955905370016 L 77.99449608788862,-11.023144796542482 A 179.9861929670935 179.9861929670935 0 0 1 112.4443052001951,-6.346328560460921 L 111.75551775991369,-3.4264703683374433 L 121.54827349670623,-5.739895335678428 L 113.82188008075792,-12.186044944707877 L 113.1330926404765,-9.2661867525844 A 182.9861929670935 182.9861929670935 0 0 0 78.10907599795235,-14.020955905370016"/><text text-anchor="middle" pointer-events="none" font-size="8px" fill="#000000" x="68.38560709986237" y="-9.633864475450991" transform="rotate(180 68.38560709986237 -12.633864475450991)" font-family="sans-serif">trek</text></g><g class="relationship" transform="translate(210.4916533087126 136.81788374315187) rotate(520.0173718490482)"><path class="outline" fill="#FF756E" stroke="none" d="M 24.018736134675446,6.953439040707552 L 24.277555179777966,5.987513214418485 A 182.73423022411043 182.73423022411043 0 0 0 46.315939906767724,10.460179059696657 L 46.17772434520499,11.450581229798217 A 183.73423022411043 183.73423022411043 0 0 1 24.018736134675446,6.953439040707552 Z M 92.64135264260933,12.002066111156665 L 92.52668321784844,11.008662405191643 A 182.73423022411043 182.73423022411043 0 0 0 114.66501814526393,7.060337725038904 L 113.95755850940117,4.144947380055077 L 121.58550555620332,5.895496965523082 L 115.60829765974762,10.947524851684006 L 114.90083802388486,8.03213450670018 A 183.73423022411043 183.73423022411043 0 0 1 92.64135264260933,12.002066111156665"/><text text-anchor="middle" pointer-events="none" font-size="8px" fill="#000000" x="69.39796839903299" y="15.701125710879097" transform="rotate(180 69.39796839903299 12.701125710879097)" font-family="sans-serif">twowheeler</text></g><g class="relationship" transform="translate(210.4916533087126 136.81788374315187) rotate(342.5852823152122)"><path class="outline" fill="#A5ABB6" stroke="none" d="M 25 1.5 L 65.51303819078163 1.5 L 65.51303819078163 -1.5 L 25 -1.5 Z M 84.84897569078163 1.5 L 125.36201388156326 1.5 L 125.36201388156326 4.5 L 134.36201388156326 0 L 125.36201388156326 -4.5 L 125.36201388156326 -1.5 L 84.84897569078163 -1.5 Z"/><text text-anchor="middle" pointer-events="none" font-size="8px" fill="#000000" x="75.18100694078163" y="3" font-family="sans-serif">trek</text></g><g class="relationship" transform="translate(281.9389832660778 2.3597073905295196) rotate(533.1487660986539)"><path class="outline" fill="#A5ABB6" stroke="none" d="M 20.90063509461097,13.799038105676656 L 22.40063509461097,11.20096189432334 A 65.3580343364666 65.3580343364666 0 0 0 43.295124620976054,18.88608197733133 L 42.754202861554674,21.836912987434147 A 68.3580343364666 68.3580343364666 0 0 1 20.90063509461097,13.799038105676656 Z M 62.44186470813742,22.55966381516977 L 62.118762419572974,19.57711374666725 A 65.3580343364666 65.3580343364666 0 0 0 83.52050448321262,13.444724334776504 L 82.21504054863557,10.743657153916569 L 92.27643799308093,10.878866121475347 L 86.1314323523667,18.846858696496373 L 84.82596841778965,16.14579151563644 A 68.3580343364666 68.3580343364666 0 0 1 62.44186470813742,22.55966381516977"/><text text-anchor="middle" pointer-events="none" font-size="8px" fill="#000000" x="52.626889123429216" y="24.412271800983632" transform="rotate(180 52.626889123429216 21.412271800983632)" font-family="sans-serif">trek</text></g><g class="relationship" transform="translate(362.5490673424381 89.12307998253505) rotate(227.10546380153875)"><path class="outline" fill="#A5ABB6" stroke="none" d="M 20.90063509461097,-13.799038105676656 L 22.40063509461097,-11.20096189432334 A 69.145960600362 69.145960600362 0 0 1 45.105923763965464,-19.438710687653014 L 44.59102637034544,-22.394193841731763 A 72.145960600362 72.145960600362 0 0 0 20.90063509461097,-13.799038105676656 Z M 64.26344098141507,-23.095527206350752 L 63.96031275943449,-20.11088094908024 A 69.145960600362 69.145960600362 0 0 1 87.19457521534828,-13.510904671059446 L 85.88339407512714,-10.812608168165745 L 95.94505529413996,-10.926509501842864 L 89.81693749579057,-18.907497676846848 L 88.50575635556943,-16.209201173953147 A 72.145960600362 72.145960600362 0 0 0 64.26344098141507,-23.095527206350752"/><text text-anchor="middle" pointer-events="none" font-size="8px" fill="#000000" x="54.456643566520334" y="-18.919912515682867" transform="rotate(180 54.456643566520334 -21.919912515682867)" font-family="sans-serif">trek</text></g><g class="relationship" transform="translate(362.5490673424381 89.12307998253505) rotate(227.10546380153875)"><path class="outline" fill="#A5ABB6" stroke="none" d="M 25 0.5 L 44.709570367460394 0.5 L 44.709570367460394 -0.5 L 25 -0.5 Z M 66.7212891174604 0.5 L 86.43085948492079 0.5 L 86.43085948492079 3.5 L 93.43085948492079 0 L 86.43085948492079 -3.5 L 86.43085948492079 -0.5 L 66.7212891174604 -0.5 Z"/><text text-anchor="middle" pointer-events="none" font-size="8px" fill="#000000" x="55.715429742460394" y="3" transform="rotate(180 55.715429742460394 0)" font-family="sans-serif">road</text></g><g class="relationship" transform="translate(362.5490673424381 89.12307998253505) rotate(227.10546380153875)"><path class="outline" fill="#FF756E" stroke="none" d="M 21.40063509461097,12.933012701892217 L 21.90063509461097,12.06698729810778 A 71.26053496530449 71.26053496530449 0 0 0 32.971628987798255,17.24829137368596 L 32.62698838691837,18.187026083934356 A 72.26053496530449 72.26053496530449 0 0 1 21.40063509461097,12.933012701892217 Z M 78.58434867179955,19.4790723258035 L 78.29299397722602,18.522457229774815 A 71.26053496530449 71.26053496530449 0 0 0 89.63760521001304,13.97134597168458 L 88.28594390203736,11.293098091349098 L 96.11212714879176,11.263844233130595 L 91.43982028731392,17.54234314546522 L 90.08815897933825,14.86409526512974 A 72.26053496530449 72.26053496530449 0 0 1 78.58434867179955,19.4790723258035"/><text text-anchor="middle" pointer-events="none" font-size="8px" fill="#000000" x="55.51422214555561" y="25.085745796533132" transform="rotate(180 55.51422214555561 22.085745796533132)" font-family="sans-serif">twowheeler</text></g><g class="relationship" transform="translate(281.9389832660778 2.3597073905295196) rotate(533.1487660986539)"><path class="outline" fill="#FF756E" stroke="none" d="M 25 0.5 L 30.660243708456868 0.5 L 30.660243708456868 -0.5 L 25 -0.5 Z M 77.12508745845687 0.5 L 82.78533116691374 0.5 L 82.78533116691374 3.5 L 89.78533116691374 0 L 82.78533116691374 -3.5 L 82.78533116691374 -0.5 L 77.12508745845687 -0.5 Z"/><text text-anchor="middle" pointer-events="none" font-size="8px" fill="#000000" x="53.89266558345687" y="3" transform="rotate(180 53.89266558345687 0)" font-family="sans-serif">twowheeler</text></g><g class="relationship" transform="translate(281.9389832660778 2.3597073905295196) rotate(533.1487660986539)"><path class="outline" fill="#A5ABB6" stroke="none" d="M 21.40063509461097,-12.933012701892217 L 21.90063509461097,-12.06698729810778 A 67.50800706083899 67.50800706083899 0 0 1 42.8530589399515,-19.886447497534817 L 42.66342840214668,-20.86830301599558 A 68.50800706083899 68.50800706083899 0 0 0 21.40063509461097,-12.933012701892217 Z M 64.73106651615406,-21.507428588730733 L 64.59857940580704,-20.516243860442458 A 67.50800706083899 67.50800706083899 0 0 1 85.9684394164708,-13.922526704706115 L 84.6213191809058,-11.241991856782795 L 92.44754076755272,-11.226001963041668 L 87.76459973055748,-17.496573168603877 L 86.41747949499248,-14.816038320680555 A 68.50800706083899 68.50800706083899 0 0 0 64.73106651615406,-21.507428588730733"/><text text-anchor="middle" pointer-events="none" font-size="8px" fill="#000000" x="53.68580815445993" y="-18.58284050992205" transform="rotate(180 53.68580815445993 -21.58284050992205)" font-family="sans-serif">road</text></g><g class="relationship" transform="translate(73.39377295565801 186.67036241167403) rotate(278.65986597470163)"><path class="outline" fill="#A5ABB6" stroke="none" d="M 23.759917089572927,-7.919364866996621 L 24.536374224880486,-5.021587388129416 A 83.96517843346783 83.96517843346783 0 0 1 34.97063627505833,-7.119118353168076 L 34.56698590005959,-10.091838719223958 A 86.96517843346783 86.96517843346783 0 0 0 23.759917089572927,-7.919364866996621 Z M 54.195671590518074,-10.52055253709048 L 53.92219971805974,-7.533043016607891 A 83.96517843346783 83.96517843346783 0 0 1 64.43809289557723,-5.893088334270998 L 63.78889765634786,-2.9641729136140738 L 73.54943677716268,-5.409960326911367 L 65.73648337403596,-11.750919175584848 L 65.08728813480658,-8.822003754927922 A 86.96517843346783 86.96517843346783 0 0 0 54.195671590518074,-10.52055253709048"/><text text-anchor="middle" pointer-events="none" font-size="8px" fill="#000000" x="44.401945558427514" y="-6.362253706593052" font-family="sans-serif">trek</text></g><g class="relationship" transform="translate(88.14300880202491 89.8300470428409) rotate(249.64662589059185)"><path class="outline" fill="#A5ABB6" stroke="none" d="M 23.759917089572927,7.919364866996621 L 24.536374224880486,5.021587388129416 A 112.69594322957711 112.69594322957711 0 0 0 42.0121601497479,8.253448350331823 L 41.70091370678797,11.237258942803265 A 115.69594322957711 115.69594322957711 0 0 1 23.759917089572927,7.919364866996621 Z M 61.263806929149204,11.61437290284178 L 61.06778684202322,8.620783731722412 A 112.69594322957711 112.69594322957711 0 0 0 78.65514439223435,6.064835107076059 L 77.99094354244195,3.1392860592672447 L 87.76389196055699,5.535007081603284 L 79.98354609181914,11.915933202693687 L 79.31934524202674,8.990384154884874 A 115.69594322957711 115.69594322957711 0 0 1 61.263806929149204,11.61437290284178"/><text text-anchor="middle" pointer-events="none" font-size="8px" fill="#000000" x="51.503283948524775" y="13.3403966762029" transform="rotate(180 51.503283948524775 10.3403966762029)" font-family="sans-serif">trek</text></g><g class="relationship" transform="translate(73.39377295565801 186.67036241167403) rotate(278.65986597470163)"><path class="outline" fill="#FF756E" stroke="none" d="M 24.018736134675446,6.953439040707552 L 24.277555179777966,5.987513214418485 A 87.56840483071184 87.56840483071184 0 0 0 25.210767848471743,6.232065251568542 L 24.96260575972806,7.200783775036726 A 88.56840483071184 88.56840483071184 0 0 1 24.018736134675446,6.953439040707552 Z M 65.9402071951971,7.909736377105702 L 65.72570315019036,6.933013276797453 A 87.56840483071184 87.56840483071184 0 0 0 66.66681676739134,6.720888918451484 L 65.99106308523932,3.797986771430825 L 73.59954739079821,5.6312806846002035 L 67.56782167692737,10.618091781145697 L 66.89206799477535,7.695189634125038 A 88.56840483071184 88.56840483071184 0 0 1 65.9402071951971,7.909736377105702"/><text text-anchor="middle" pointer-events="none" font-size="8px" fill="#000000" x="45.418484503454955" y="12.458156723063539" font-family="sans-serif">twowhe…</text></g><g class="relationship" transform="translate(88.14300880202491 89.8300470428409) rotate(249.64662589059185)"><path class="outline" fill="#FF756E" stroke="none" d="M 24.018736134675446,-6.953439040707552 L 24.277555179777966,-5.987513214418485 A 115.9698556040185 115.9698556040185 0 0 1 29.58406898273656,-7.276285918893805 L 29.371007637126894,-8.253324742588646 A 116.9698556040185 116.9698556040185 0 0 0 24.018736134675446,-6.953439040707552 Z M 75.7211043622976,-8.959552832632014 L 75.53790894170177,-7.976476315837559 A 115.9698556040185 115.9698556040185 0 0 1 80.88122386902901,-6.84997313688394 L 80.19341250815447,-3.9298848622162206 L 87.80939840339946,-5.731761340621271 L 81.79830568352841,-10.743424169774233 L 81.11049432265386,-7.823335895106513 A 116.9698556040185 116.9698556040185 0 0 0 75.7211043622976,-8.959552832632014"/><text text-anchor="middle" pointer-events="none" font-size="8px" fill="#000000" x="52.51833818318516" y="-7.425572712122346" transform="rotate(180 52.51833818318516 -10.425572712122346)" font-family="sans-serif">twowheeler</text></g><g class="relationship" transform="translate(73.39377295565801 186.67036241167403) rotate(196.48039988616176)"><path class="outline" fill="#FF756E" stroke="none" d="M 24.018736134675446,-6.953439040707552 L 24.277555179777966,-5.987513214418485 A 172.08145541442184 172.08145541442184 0 0 1 43.623866932822736,-9.997110302672127 L 43.47747320226938,-10.986336705299294 A 173.08145541442184 173.08145541442184 0 0 0 24.018736134675446,-6.953439040707552 Z M 89.93280044982751,-11.557979593743624 L 89.81079265153812,-10.565450452027079 A 172.08145541442184 172.08145541442184 0 0 1 109.24990950377924,-7.033116484089598 L 108.54499223788773,-4.11711037157062 L 116.17140997730544,-5.874310549095905 L 110.18979919163459,-10.921124634114902 L 109.48488192574308,-8.005118521595923 A 173.08145541442184 173.08145541442184 0 0 0 89.93280044982751,-11.557979593743624"/><text text-anchor="middle" pointer-events="none" font-size="8px" fill="#000000" x="66.69202163090648" y="-9.337982101068832" transform="rotate(180 66.69202163090648 -12.337982101068832)" font-family="sans-serif">twowheeler</text></g><g class="relationship" transform="translate(-61.30667597541944 146.8203888941129) rotate(339.1264182040819)"><path class="outline" fill="#A5ABB6" stroke="none" d="M 21.40063509461097,12.933012701892217 L 21.90063509461097,12.06698729810778 A 113.65135836858522 113.65135836858522 0 0 0 65.40359173618867,26.509806261273468 L 65.28636724601138,27.502911703259713 A 114.65135836858522 114.65135836858522 0 0 1 21.40063509461097,12.933012701892217 Z M 87.35536019956344,27.968195505531682 L 87.28009684426223,26.971031814180648 A 113.65135836858522 113.65135836858522 0 0 0 131.35312616740347,14.374590156184409 L 129.9639616388681,11.715601267027647 L 137.78896099685846,11.576371071128015 L 133.20534553878394,17.919908675060093 L 131.81618101024858,15.260919785903331 A 114.65135836858522 114.65135836858522 0 0 1 87.35536019956344,27.968195505531682"/><text text-anchor="middle" pointer-events="none" font-size="8px" fill="#000000" x="76.32017921818114" y="30.768020514394706" font-family="sans-serif">road</text></g><g class="relationship" transform="translate(73.39377295565801 186.67036241167403) rotate(196.48039988616176)"><path class="outline" fill="#A5ABB6" stroke="none" d="M 23.759917089572927,7.919364866996621 L 24.536374224880486,5.021587388129416 A 169.2661086067547 169.2661086067547 0 0 0 56.13018858140869,10.34783572060607 L 55.91368667783499,13.340013343299773 A 172.2661086067547 172.2661086067547 0 0 1 23.759917089572927,7.919364866996621 Z M 75.40667471201326,13.644417673051976 L 75.28370784499998,10.646938874191676 A 169.2661086067547 169.2661086067547 0 0 0 107.02842670291884,6.309791018092747 L 106.34283003743239,3.389181969919081 L 116.13305218018304,5.713305545720276 L 108.39962003389171,12.151009114440077 L 107.71402336840526,9.230400066266412 A 172.2661086067547 172.2661086067547 0 0 1 75.40667471201326,13.644417673051976"/><text text-anchor="middle" pointer-events="none" font-size="8px" fill="#000000" x="65.67929234576526" y="15.268372268287834" transform="rotate(180 65.67929234576526 12.268372268287834)" font-family="sans-serif">trek</text></g><g class="relationship" transform="translate(-61.30667597541944 146.8203888941129) rotate(339.1264182040819)"><path class="outline" fill="#A5ABB6" stroke="none" d="M 25 1.5 L 65.80563211991571 1.5 L 65.80563211991571 -1.5 L 25 -1.5 Z M 85.14156961991571 1.5 L 125.94720173983143 1.5 L 125.94720173983143 4.5 L 134.94720173983143 0 L 125.94720173983143 -4.5 L 125.94720173983143 -1.5 L 85.14156961991571 -1.5 Z"/><text text-anchor="middle" pointer-events="none" font-size="8px" fill="#000000" x="75.47360086991571" y="3" font-family="sans-serif">trek</text></g><g class="relationship" transform="translate(-61.30667597541944 146.8203888941129) rotate(339.1264182040819)"><path class="outline" fill="#FF756E" stroke="none" d="M 21.40063509461097,-12.933012701892217 L 21.90063509461097,-12.06698729810778 A 113.65135836858522 113.65135836858522 0 0 1 53.41395979565698,-24.43875644265573 L 53.19124046483161,-25.413639050807447 A 114.65135836858522 114.65135836858522 0 0 0 21.40063509461097,-12.933012701892217 Z M 99.52779695290384,-26.390559440076515 L 99.3463644520596,-25.407156039819313 A 113.65135836858522 113.65135836858522 0 0 1 131.35312616740347,-14.374590156184409 L 129.9639616388681,-11.715601267027647 L 137.78896099685846,-11.576371071128015 L 133.20534553878394,-17.919908675060093 L 131.81618101024858,-15.260919785903331 A 114.65135836858522 114.65135836858522 0 0 0 99.52779695290384,-26.390559440076515"/><text text-anchor="middle" pointer-events="none" font-size="8px" fill="#000000" x="76.32017921818114" y="-24.768020514394706" font-family="sans-serif">twowheeler</text></g><g class="relationship" transform="translate(-61.30667597541944 146.8203888941129) rotate(267.91295536786293)"><path class="outline" fill="#A5ABB6" stroke="none" d="M 25 1.5 L 50.80044662162503 1.5 L 50.80044662162503 -1.5 L 25 -1.5 Z M 70.13638412162503 1.5 L 95.93683074325006 1.5 L 95.93683074325006 4.5 L 104.93683074325006 0 L 95.93683074325006 -4.5 L 95.93683074325006 -1.5 L 70.13638412162503 -1.5 Z"/><text text-anchor="middle" pointer-events="none" font-size="8px" fill="#000000" x="60.46841537162503" y="3" transform="rotate(180 60.46841537162503 0)" font-family="sans-serif">trek</text></g><g class="relationship" transform="translate(-66.03868244828618 16.96975124323052) rotate(344.34302704255765)"><path class="outline" fill="#A5ABB6" stroke="none" d="M 25 1.5 L 45.639798293149624 1.5 L 45.639798293149624 -1.5 L 25 -1.5 Z M 64.97573579314962 1.5 L 85.61553408629925 1.5 L 85.61553408629925 4.5 L 94.61553408629925 0 L 85.61553408629925 -4.5 L 85.61553408629925 -1.5 L 64.97573579314962 -1.5 Z"/><text text-anchor="middle" pointer-events="none" font-size="8px" fill="#000000" x="55.307767043149624" y="3" font-family="sans-serif">trek</text></g></g><g class="layer nodes"><g class="node" transform="translate(210.4916533087126,136.81788374315187)"><circle class="outline" cx="0" cy="0" r="25" fill="#68BDF6" stroke="#5CA8DB" stroke-width="2px"/><text text-anchor="middle" pointer-events="none" y="5" font-size="10px" fill="#FFFFFF" font-family="sans-serif"> Rimbik</text></g><g class="node" transform="translate(305.24994105811936,190.50290923458306)"><circle class="outline" cx="0" cy="0" r="25" fill="#68BDF6" stroke="#5CA8DB" stroke-width="2px"/><text text-anchor="middle" pointer-events="none" y="5" font-size="10px" fill="#FFFFFF" font-family="sans-serif"> Darjeeling</text></g><g class="node" transform="translate(167.97330725759087,16.052659702819433)"><circle class="outline" cx="0" cy="0" r="25" fill="#6DCE9E" stroke="#60B58B" stroke-width="2px"/><text text-anchor="middle" pointer-events="none" y="5" font-size="10px" fill="#FFFFFF" font-family="sans-serif"> BhikeBh…</text></g><g class="node" transform="translate(49.13847968986475,-15.311780885104252)"><circle class="outline" cx="0" cy="0" r="25" fill="#FF756E" stroke="#E06760" stroke-width="2px"/><text text-anchor="middle" pointer-events="none" y="5" font-size="10px" fill="#FFFFFF" font-family="sans-serif"> Sandak…</text></g><g class="node" transform="translate(362.5490673424381,89.12307998253505)"><circle class="outline" cx="0" cy="0" r="25" fill="#6DCE9E" stroke="#60B58B" stroke-width="2px"/><text text-anchor="middle" pointer-events="none" y="5" font-size="10px" fill="#FFFFFF" font-family="sans-serif"> Tumbling</text></g><g class="node" transform="translate(73.39377295565801,186.67036241167403)"><circle class="outline" cx="0" cy="0" r="25" fill="#6DCE9E" stroke="#60B58B" stroke-width="2px"/><text text-anchor="middle" pointer-events="none" y="5" font-size="10px" fill="#FFFFFF" font-family="sans-serif"> Sirikhola</text></g><g class="node" transform="translate(281.9389832660778,2.3597073905295196)"><circle class="outline" cx="0" cy="0" r="25" fill="#6DCE9E" stroke="#60B58B" stroke-width="2px"/><text text-anchor="middle" pointer-events="none" y="5" font-size="10px" fill="#FFFFFF" font-family="sans-serif"> Gairibus</text></g><g class="node" transform="translate(88.14300880202491,89.8300470428409)"><circle class="outline" cx="0" cy="0" r="25" fill="#6DCE9E" stroke="#60B58B" stroke-width="2px"/><text text-anchor="middle" pointer-events="none" y="5" font-size="10px" fill="#FFFFFF" font-family="sans-serif"> Gurdum</text></g><g class="node" transform="translate(-61.30667597541944,146.8203888941129)"><circle class="outline" cx="0" cy="0" r="25" fill="#6DCE9E" stroke="#60B58B" stroke-width="2px"/><text text-anchor="middle" pointer-events="none" y="5" font-size="10px" fill="#FFFFFF" font-family="sans-serif"> Rammam</text></g><g class="node" transform="translate(-66.03868244828618,16.96975124323052)"><circle class="outline" cx="0" cy="0" r="25" fill="#FF756E" stroke="#E06760" stroke-width="2px"/><text text-anchor="middle" pointer-events="none" y="5" font-size="10px" fill="#FFFFFF" font-family="sans-serif"> Sabargr…</text></g></g></svg>