<svg xmlns="http://www.w3.org/2000/svg" width="213.3732452392578" height="225.8942413330078" viewBox="-6.702182292938232 -13.91913890838623 213.3732452392578 225.8942413330078"><title>Neo4j Graph Visualization</title><desc>Created using Neo4j (http://www.neo4j.com/)</desc><g class="layer relationships"><g class="relationship" transform="translate(177.67106078357992 182.97509012293065) rotate(196.5558003239792)"><path class="outline" fill="#A5ABB6" stroke="none" d="M 20.90063509461097,13.799038105676656 L 22.40063509461097,11.20096189432334 A 55.73174438691677 55.73174438691677 0 0 0 38.72481517269664,17.459397855079537 L 38.103534128526654,20.39436120479194 A 58.73174438691677 58.73174438691677 0 0 1 20.90063509461097,13.799038105676656 Z M 57.83647120798108,21.17770849329726 L 57.44979970695898,18.202731997541818 A 55.73174438691677 55.73174438691677 0 0 0 74.21871668583552,13.258007611673571 L 72.92938635921888,10.549202098376867 L 82.98979838903395,10.744419388472005 L 76.79737733906879,18.675618638266982 L 75.50804701245215,15.966813124970278 A 58.73174438691677 58.73174438691677 0 0 1 57.83647120798108,21.17770849329726"/><text text-anchor="middle" pointer-events="none" font-size="8px" fill="#000000" x="47.99634102029837" y="23.122557677045513" transform="rotate(180 47.99634102029837 20.122557677045513)" font-family="sans-serif">trek</text></g><g class="relationship" transform="translate(76.48424978246194 152.89496780811203) rotate(293.66706712719053)"><path class="outline" fill="#A5ABB6" stroke="none" d="M 25 1.5 L 40.9122902824157 1.5 L 40.9122902824157 -1.5 L 25 -1.5 Z M 60.2482277824157 1.5 L 76.1605180648314 1.5 L 76.1605180648314 4.5 L 85.1605180648314 0 L 76.1605180648314 -4.5 L 76.1605180648314 -1.5 L 60.2482277824157 -1.5 Z"/><text text-anchor="middle" pointer-events="none" font-size="8px" fill="#000000" x="50.5802590324157" y="3" font-family="sans-serif">trek</text></g><g class="relationship" transform="translate(120.70503908887648 51.99966795014174) rotate(200.5642622980593)"><path class="outline" fill="#A5ABB6" stroke="none" d="M 25 1.5 L 38.38433720697957 1.5 L 38.38433720697957 -1.5 L 25 -1.5 Z M 57.72027470697957 1.5 L 71.10461191395915 1.5 L 71.10461191395915 4.5 L 80.10461191395915 0 L 71.10461191395915 -4.5 L 71.10461191395915 -1.5 L 57.72027470697957 -1.5 Z"/><text text-anchor="middle" pointer-events="none" font-size="8px" fill="#000000" x="48.05230595697957" y="3" transform="rotate(180 48.05230595697957 0)" font-family="sans-serif">trek</text></g><g class="relationship" transform="translate(177.67106078357992 182.97509012293065) rotate(196.5558003239792)"><path class="outline" fill="#A5ABB6" stroke="none" d="M 25 0.5 L 38.27572945825325 0.5 L 38.27572945825325 -0.5 L 25 -0.5 Z M 60.28744820825325 0.5 L 73.5631776665065 0.5 L 73.5631776665065 3.5 L 80.5631776665065 0 L 73.5631776665065 -3.5 L 73.5631776665065 -0.5 L 60.28744820825325 -0.5 Z"/><text text-anchor="middle" pointer-events="none" font-size="8px" fill="#000000" x="49.28158883325325" y="3" transform="rotate(180 49.28158883325325 0)" font-family="sans-serif">road</text></g><g class="relationship" transform="translate(177.67106078357992 182.97509012293065) rotate(196.5558003239792)"><path class="outline" fill="#A5ABB6" stroke="none" d="M 21.40063509461097,-12.933012701892217 L 21.90063509461097,-12.06698729810778 A 57.98218040938111 57.98218040938111 0 0 1 22.603585020705218,-12.466327376868364 L 22.115708571788172,-13.339240070436333 A 58.98218040938111 58.98218040938111 0 0 0 21.40063509461097,-12.933012701892217 Z M 76.38569416292572,-15.04086913786535 L 75.95346245011557,-14.139106560220213 A 57.98218040938111 57.98218040938111 0 0 1 76.68004948055659,-13.784589445971372 L 75.3457607042889,-11.09764444066775 L 83.17196928897633,-11.119073135564044 L 78.45910118224684,-17.3671827863762 L 77.12481240597916,-14.680237781072579 A 58.98218040938111 58.98218040938111 0 0 0 76.38569416292572,-15.04086913786535"/><text text-anchor="middle" pointer-events="none" font-size="8px" fill="#000000" x="49.058924073139664" y="-17.30639993057639" transform="rotate(180 49.058924073139664 -20.30639993057639)" font-family="sans-serif">PublicTrans…</text></g></g><g class="layer nodes"><g class="node" transform="translate(76.48424978246194,152.89496780811203)"><circle class="outline" cx="0" cy="0" r="25" fill="#68BDF6" stroke="#5CA8DB" stroke-width="2px"/><text text-anchor="middle" pointer-events="none" y="5" font-size="10px" fill="#FFFFFF" font-family="sans-serif"> Rimbik</text></g><g class="node" transform="translate(177.67106078357992,182.97509012293065)"><circle class="outline" cx="0" cy="0" r="25" fill="#68BDF6" stroke="#5CA8DB" stroke-width="2px"/><text text-anchor="middle" pointer-events="none" y="5" font-size="10px" fill="#FFFFFF" font-family="sans-serif"> Darjeeling</text></g><g class="node" transform="translate(120.70503908887648,51.99966795014174)"><circle class="outline" cx="0" cy="0" r="25" fill="#6DCE9E" stroke="#60B58B" stroke-width="2px"/><text text-anchor="middle" pointer-events="none" y="5" font-size="10px" fill="#FFFFFF" font-family="sans-serif"> BhikeBh…</text></g><g class="node" transform="translate(22.297817958113363,15.080861429547737)"><circle class="outline" cx="0" cy="0" r="25" fill="#FF756E" stroke="#E06760" stroke-width="2px"/><text text-anchor="middle" pointer-events="none" y="5" font-size="10px" fill="#FFFFFF" font-family="sans-serif"> Sandak…</text></g></g></svg>